<svg width="12" height="12" viewBox="0 0 12 12" fill="none" xmlns="http://www.w3.org/2000/svg">
<path d="M0.749959 0.75H11.25C11.4047 0.75 11.553 0.811458 11.6624 0.920854C11.7718 1.03025 11.8333 1.17862 11.8333 1.33333V10.6667C11.8333 10.8214 11.7718 10.9697 11.6624 11.0791C11.553 11.1885 11.4047 11.25 11.25 11.25H0.749959C0.59525 11.25 0.446877 11.1885 0.33748 11.0791C0.228084 10.9697 0.166626 10.8214 0.166626 10.6667V1.33333C0.166626 1.17862 0.228084 1.03025 0.33748 0.920854C0.446877 0.811458 0.59525 0.75 0.749959 0.75ZM6.03496 5.81508L2.29463 2.63883L1.53921 3.52783L6.04254 7.35158L10.4648 3.52492L9.70179 2.64233L6.03554 5.81508H6.03496Z" fill="#FF7129"/>
</svg>
